<svg xmlns="http://www.w3.org/2000/svg" viewBox="0 0 1283 1290" role="img" aria-label="Graph of linked notes in the knowledge base">
<g stroke="#8b5cf6" stroke-opacity="0.35" stroke-width="1.2">
<line x1="552.2" y1="20.0" x2="638.7" y2="106.6"/>
<line x1="552.2" y1="20.0" x2="446.9" y2="108.0"/>
<line x1="552.2" y1="20.0" x2="531.2" y2="284.7"/>
<line x1="638.7" y1="106.6" x2="446.9" y2="108.0"/>
<line x1="638.7" y1="106.6" x2="531.2" y2="284.7"/>
<line x1="446.9" y1="108.0" x2="531.2" y2="284.7"/>
<line x1="811.7" y1="169.1" x2="921.7" y2="187.0"/>
<line x1="811.7" y1="169.1" x2="721.3" y2="194.6"/>
<line x1="811.7" y1="169.1" x2="859.9" y2="369.3"/>
<line x1="811.7" y1="169.1" x2="674.0" y2="441.9"/>
<line x1="921.7" y1="187.0" x2="721.3" y2="194.6"/>
<line x1="921.7" y1="187.0" x2="886.8" y2="276.5"/>
<line x1="921.7" y1="187.0" x2="859.9" y2="369.3"/>
<line x1="921.7" y1="187.0" x2="674.0" y2="441.9"/>
<line x1="921.7" y1="187.0" x2="817.6" y2="492.0"/>
<line x1="721.3" y1="194.6" x2="886.8" y2="276.5"/>
<line x1="721.3" y1="194.6" x2="859.9" y2="369.3"/>
<line x1="721.3" y1="194.6" x2="674.0" y2="441.9"/>
<line x1="1032.9" y1="207.5" x2="1116.2" y2="347.1"/>
<line x1="1032.9" y1="207.5" x2="978.7" y2="352.2"/>
<line x1="1032.9" y1="207.5" x2="859.9" y2="369.3"/>
<line x1="806.7" y1="269.7" x2="886.8" y2="276.5"/>
<line x1="806.7" y1="269.7" x2="678.2" y2="293.7"/>
<line x1="806.7" y1="269.7" x2="978.7" y2="352.2"/>
<line x1="806.7" y1="269.7" x2="859.9" y2="369.3"/>
<line x1="806.7" y1="269.7" x2="714.7" y2="372.5"/>
<line x1="806.7" y1="269.7" x2="754.4" y2="442.4"/>
<line x1="806.7" y1="269.7" x2="817.6" y2="492.0"/>
<line x1="806.7" y1="269.7" x2="823.6" y2="612.1"/>
<line x1="806.7" y1="269.7" x2="700.0" y2="716.7"/>
<line x1="886.8" y1="276.5" x2="678.2" y2="293.7"/>
<line x1="886.8" y1="276.5" x2="978.7" y2="352.2"/>
<line x1="886.8" y1="276.5" x2="859.9" y2="369.3"/>
<line x1="886.8" y1="276.5" x2="714.7" y2="372.5"/>
<line x1="886.8" y1="276.5" x2="505.4" y2="400.3"/>
<line x1="886.8" y1="276.5" x2="966.2" y2="431.6"/>
<line x1="886.8" y1="276.5" x2="754.4" y2="442.4"/>
<line x1="886.8" y1="276.5" x2="704.5" y2="897.4"/>
<line x1="531.2" y1="284.7" x2="351.6" y2="373.0"/>
<line x1="531.2" y1="284.7" x2="674.0" y2="441.9"/>
<line x1="531.2" y1="284.7" x2="539.4" y2="579.5"/>
<line x1="531.2" y1="284.7" x2="548.4" y2="741.8"/>
<line x1="678.2" y1="293.7" x2="859.9" y2="369.3"/>
<line x1="678.2" y1="293.7" x2="714.7" y2="372.5"/>
<line x1="678.2" y1="293.7" x2="351.6" y2="373.0"/>
<line x1="678.2" y1="293.7" x2="505.4" y2="400.3"/>
<line x1="678.2" y1="293.7" x2="966.2" y2="431.6"/>
<line x1="678.2" y1="293.7" x2="754.4" y2="442.4"/>
<line x1="678.2" y1="293.7" x2="817.6" y2="492.0"/>
<line x1="678.2" y1="293.7" x2="462.4" y2="556.7"/>
<line x1="678.2" y1="293.7" x2="823.6" y2="612.1"/>
<line x1="678.2" y1="293.7" x2="652.0" y2="836.5"/>
<line x1="1116.2" y1="347.1" x2="978.7" y2="352.2"/>
<line x1="1116.2" y1="347.1" x2="859.9" y2="369.3"/>
<line x1="1116.2" y1="347.1" x2="505.4" y2="400.3"/>
<line x1="978.7" y1="352.2" x2="859.9" y2="369.3"/>
<line x1="978.7" y1="352.2" x2="714.7" y2="372.5"/>
<line x1="978.7" y1="352.2" x2="966.2" y2="431.6"/>
<line x1="978.7" y1="352.2" x2="817.6" y2="492.0"/>
<line x1="978.7" y1="352.2" x2="718.6" y2="595.7"/>
<line x1="978.7" y1="352.2" x2="779.6" y2="689.8"/>
<line x1="273.9" y1="352.3" x2="505.4" y2="400.3"/>
<line x1="273.9" y1="352.3" x2="216.6" y2="476.7"/>
<line x1="273.9" y1="352.3" x2="332.9" y2="497.9"/>
<line x1="273.9" y1="352.3" x2="250.3" y2="655.6"/>
<line x1="859.9" y1="369.3" x2="714.7" y2="372.5"/>
<line x1="859.9" y1="369.3" x2="505.4" y2="400.3"/>
<line x1="859.9" y1="369.3" x2="966.2" y2="431.6"/>
<line x1="859.9" y1="369.3" x2="674.0" y2="441.9"/>
<line x1="859.9" y1="369.3" x2="754.4" y2="442.4"/>
<line x1="859.9" y1="369.3" x2="817.6" y2="492.0"/>
<line x1="859.9" y1="369.3" x2="823.6" y2="612.1"/>
<line x1="859.9" y1="369.3" x2="974.4" y2="679.0"/>
<line x1="859.9" y1="369.3" x2="779.6" y2="689.8"/>
<line x1="859.9" y1="369.3" x2="652.0" y2="836.5"/>
<line x1="859.9" y1="369.3" x2="789.3" y2="850.0"/>
<line x1="859.9" y1="369.3" x2="704.5" y2="897.4"/>
<line x1="714.7" y1="372.5" x2="817.6" y2="492.0"/>
<line x1="714.7" y1="372.5" x2="539.4" y2="579.5"/>
<line x1="714.7" y1="372.5" x2="718.6" y2="595.7"/>
<line x1="714.7" y1="372.5" x2="823.6" y2="612.1"/>
<line x1="714.7" y1="372.5" x2="779.6" y2="689.8"/>
<line x1="714.7" y1="372.5" x2="700.0" y2="716.7"/>
<line x1="714.7" y1="372.5" x2="418.4" y2="777.1"/>
<line x1="714.7" y1="372.5" x2="652.0" y2="836.5"/>
<line x1="351.6" y1="373.0" x2="505.4" y2="400.3"/>
<line x1="351.6" y1="373.0" x2="284.8" y2="433.8"/>
<line x1="351.6" y1="373.0" x2="216.6" y2="476.7"/>
<line x1="351.6" y1="373.0" x2="332.9" y2="497.9"/>
<line x1="351.6" y1="373.0" x2="200.3" y2="555.5"/>
<line x1="351.6" y1="373.0" x2="382.8" y2="567.6"/>
<line x1="351.6" y1="373.0" x2="124.1" y2="580.5"/>
<line x1="351.6" y1="373.0" x2="324.9" y2="625.9"/>
<line x1="351.6" y1="373.0" x2="250.3" y2="655.6"/>
<line x1="351.6" y1="373.0" x2="527.3" y2="659.0"/>
<line x1="351.6" y1="373.0" x2="374.1" y2="710.0"/>
<line x1="351.6" y1="373.0" x2="548.4" y2="741.8"/>
<line x1="505.4" y1="400.3" x2="421.2" y2="413.4"/>
<line x1="505.4" y1="400.3" x2="284.8" y2="433.8"/>
<line x1="505.4" y1="400.3" x2="754.4" y2="442.4"/>
<line x1="505.4" y1="400.3" x2="413.1" y2="493.4"/>
<line x1="505.4" y1="400.3" x2="332.9" y2="497.9"/>
<line x1="505.4" y1="400.3" x2="666.4" y2="521.9"/>
<line x1="505.4" y1="400.3" x2="280.5" y2="558.9"/>
<line x1="505.4" y1="400.3" x2="462.4" y2="556.7"/>
<line x1="505.4" y1="400.3" x2="382.8" y2="567.6"/>
<line x1="505.4" y1="400.3" x2="124.1" y2="580.5"/>
<line x1="505.4" y1="400.3" x2="250.3" y2="655.6"/>
<line x1="505.4" y1="400.3" x2="427.1" y2="649.5"/>
<line x1="505.4" y1="400.3" x2="779.6" y2="689.8"/>
<line x1="505.4" y1="400.3" x2="190.3" y2="717.5"/>
<line x1="505.4" y1="400.3" x2="294.9" y2="722.5"/>
<line x1="505.4" y1="400.3" x2="548.4" y2="741.8"/>
<line x1="200.5" y1="397.4" x2="62.3" y2="483.6"/>
<line x1="200.5" y1="397.4" x2="200.3" y2="555.5"/>
<line x1="200.5" y1="397.4" x2="124.1" y2="580.5"/>
<line x1="200.5" y1="397.4" x2="250.3" y2="655.6"/>
<line x1="200.5" y1="397.4" x2="484.4" y2="920.4"/>
<line x1="421.2" y1="413.4" x2="284.8" y2="433.8"/>
<line x1="421.2" y1="413.4" x2="666.4" y2="521.9"/>
<line x1="421.2" y1="413.4" x2="539.4" y2="579.5"/>
<line x1="421.2" y1="413.4" x2="250.3" y2="655.6"/>
<line x1="124.5" y1="423.0" x2="280.5" y2="558.9"/>
<line x1="124.5" y1="423.0" x2="45.6" y2="562.3"/>
<line x1="124.5" y1="423.0" x2="250.3" y2="655.6"/>
<line x1="966.2" y1="431.6" x2="754.4" y2="442.4"/>
<line x1="966.2" y1="431.6" x2="817.6" y2="492.0"/>
<line x1="966.2" y1="431.6" x2="779.6" y2="689.8"/>
<line x1="284.8" y1="433.8" x2="413.1" y2="493.4"/>
<line x1="284.8" y1="433.8" x2="462.4" y2="556.7"/>
<line x1="284.8" y1="433.8" x2="124.1" y2="580.5"/>
<line x1="284.8" y1="433.8" x2="250.3" y2="655.6"/>
<line x1="284.8" y1="433.8" x2="294.9" y2="722.5"/>
<line x1="674.0" y1="441.9" x2="666.4" y2="521.9"/>
<line x1="674.0" y1="441.9" x2="720.4" y2="794.4"/>
<line x1="674.0" y1="441.9" x2="561.0" y2="821.0"/>
<line x1="674.0" y1="441.9" x2="625.2" y2="912.3"/>
<line x1="674.0" y1="441.9" x2="484.4" y2="920.4"/>
<line x1="674.0" y1="441.9" x2="651.4" y2="1050.5"/>
<line x1="754.4" y1="442.4" x2="587.0" y2="508.5"/>
<line x1="754.4" y1="442.4" x2="462.4" y2="556.7"/>
<line x1="216.6" y1="476.7" x2="332.9" y2="497.9"/>
<line x1="216.6" y1="476.7" x2="250.3" y2="655.6"/>
<line x1="216.6" y1="476.7" x2="427.1" y2="649.5"/>
<line x1="216.6" y1="476.7" x2="374.1" y2="710.0"/>
<line x1="216.6" y1="476.7" x2="418.4" y2="777.1"/>
<line x1="1036.5" y1="479.4" x2="896.7" y2="507.4"/>
<line x1="1036.5" y1="479.4" x2="539.4" y2="579.5"/>
<line x1="1036.5" y1="479.4" x2="968.3" y2="583.4"/>
<line x1="1036.5" y1="479.4" x2="1101.6" y2="634.7"/>
<line x1="1036.5" y1="479.4" x2="974.4" y2="679.0"/>
<line x1="62.3" y1="483.6" x2="200.3" y2="555.5"/>
<line x1="62.3" y1="483.6" x2="124.1" y2="580.5"/>
<line x1="62.3" y1="483.6" x2="324.9" y2="625.9"/>
<line x1="62.3" y1="483.6" x2="250.3" y2="655.6"/>
<line x1="817.6" y1="492.0" x2="718.6" y2="595.7"/>
<line x1="817.6" y1="492.0" x2="823.6" y2="612.1"/>
<line x1="817.6" y1="492.0" x2="527.3" y2="659.0"/>
<line x1="817.6" y1="492.0" x2="779.6" y2="689.8"/>
<line x1="817.6" y1="492.0" x2="700.0" y2="716.7"/>
<line x1="817.6" y1="492.0" x2="418.4" y2="777.1"/>
<line x1="817.6" y1="492.0" x2="652.0" y2="836.5"/>
<line x1="413.1" y1="493.4" x2="587.0" y2="508.5"/>
<line x1="413.1" y1="493.4" x2="280.5" y2="558.9"/>
<line x1="413.1" y1="493.4" x2="324.9" y2="625.9"/>
<line x1="413.1" y1="493.4" x2="250.3" y2="655.6"/>
<line x1="413.1" y1="493.4" x2="603.9" y2="683.3"/>
<line x1="413.1" y1="493.4" x2="190.3" y2="717.5"/>
<line x1="413.1" y1="493.4" x2="631.5" y2="758.9"/>
<line x1="332.9" y1="497.9" x2="250.3" y2="655.6"/>
<line x1="332.9" y1="497.9" x2="427.1" y2="649.5"/>
<line x1="332.9" y1="497.9" x2="548.4" y2="741.8"/>
<line x1="332.9" y1="497.9" x2="418.4" y2="777.1"/>
<line x1="140.4" y1="501.9" x2="280.5" y2="558.9"/>
<line x1="140.4" y1="501.9" x2="324.9" y2="625.9"/>
<line x1="140.4" y1="501.9" x2="250.3" y2="655.6"/>
<line x1="140.4" y1="501.9" x2="527.3" y2="659.0"/>
<line x1="140.4" y1="501.9" x2="190.3" y2="717.5"/>
<line x1="896.7" y1="507.4" x2="539.4" y2="579.5"/>
<line x1="896.7" y1="507.4" x2="968.3" y2="583.4"/>
<line x1="896.7" y1="507.4" x2="616.0" y2="604.1"/>
<line x1="896.7" y1="507.4" x2="823.6" y2="612.1"/>
<line x1="896.7" y1="507.4" x2="974.4" y2="679.0"/>
<line x1="587.0" y1="508.5" x2="603.9" y2="683.3"/>
<line x1="587.0" y1="508.5" x2="631.5" y2="758.9"/>
<line x1="666.4" y1="521.9" x2="539.4" y2="579.5"/>
<line x1="666.4" y1="521.9" x2="704.5" y2="897.4"/>
<line x1="200.3" y1="555.5" x2="124.1" y2="580.5"/>
<line x1="200.3" y1="555.5" x2="324.9" y2="625.9"/>
<line x1="200.3" y1="555.5" x2="250.3" y2="655.6"/>
<line x1="200.3" y1="555.5" x2="20.0" y2="656.6"/>
<line x1="200.3" y1="555.5" x2="700.0" y2="716.7"/>
<line x1="200.3" y1="555.5" x2="190.3" y2="717.5"/>
<line x1="280.5" y1="558.9" x2="462.4" y2="556.7"/>
<line x1="280.5" y1="558.9" x2="45.6" y2="562.3"/>
<line x1="280.5" y1="558.9" x2="124.1" y2="580.5"/>
<line x1="280.5" y1="558.9" x2="616.0" y2="604.1"/>
<line x1="280.5" y1="558.9" x2="324.9" y2="625.9"/>
<line x1="280.5" y1="558.9" x2="250.3" y2="655.6"/>
<line x1="280.5" y1="558.9" x2="427.1" y2="649.5"/>
<line x1="280.5" y1="558.9" x2="527.3" y2="659.0"/>
<line x1="280.5" y1="558.9" x2="779.6" y2="689.8"/>
<line x1="280.5" y1="558.9" x2="700.0" y2="716.7"/>
<line x1="280.5" y1="558.9" x2="190.3" y2="717.5"/>
<line x1="280.5" y1="558.9" x2="294.9" y2="722.5"/>
<line x1="280.5" y1="558.9" x2="47.3" y2="732.4"/>
<line x1="280.5" y1="558.9" x2="123.3" y2="763.6"/>
<line x1="280.5" y1="558.9" x2="395.6" y2="881.9"/>
<line x1="462.4" y1="556.7" x2="45.6" y2="562.3"/>
<line x1="462.4" y1="556.7" x2="616.0" y2="604.1"/>
<line x1="462.4" y1="556.7" x2="250.3" y2="655.6"/>
<line x1="462.4" y1="556.7" x2="190.3" y2="717.5"/>
<line x1="462.4" y1="556.7" x2="294.9" y2="722.5"/>
<line x1="462.4" y1="556.7" x2="395.6" y2="881.9"/>
<line x1="45.6" y1="562.3" x2="250.3" y2="655.6"/>
<line x1="382.8" y1="567.6" x2="539.4" y2="579.5"/>
<line x1="382.8" y1="567.6" x2="250.3" y2="655.6"/>
<line x1="382.8" y1="567.6" x2="427.1" y2="649.5"/>
<line x1="382.8" y1="567.6" x2="527.3" y2="659.0"/>
<line x1="382.8" y1="567.6" x2="779.6" y2="689.8"/>
<line x1="382.8" y1="567.6" x2="374.1" y2="710.0"/>
<line x1="382.8" y1="567.6" x2="294.9" y2="722.5"/>
<line x1="382.8" y1="567.6" x2="418.4" y2="777.1"/>
<line x1="539.4" y1="579.5" x2="250.3" y2="655.6"/>
<line x1="539.4" y1="579.5" x2="427.1" y2="649.5"/>
<line x1="539.4" y1="579.5" x2="527.3" y2="659.0"/>
<line x1="539.4" y1="579.5" x2="779.6" y2="689.8"/>
<line x1="539.4" y1="579.5" x2="374.1" y2="710.0"/>
<line x1="539.4" y1="579.5" x2="190.3" y2="717.5"/>
<line x1="539.4" y1="579.5" x2="471.9" y2="717.0"/>
<line x1="539.4" y1="579.5" x2="418.4" y2="777.1"/>
<line x1="539.4" y1="579.5" x2="652.0" y2="836.5"/>
<line x1="539.4" y1="579.5" x2="465.6" y2="842.2"/>
<line x1="539.4" y1="579.5" x2="704.5" y2="897.4"/>
<line x1="539.4" y1="579.5" x2="492.4" y2="1000.3"/>
<line x1="124.1" y1="580.5" x2="324.9" y2="625.9"/>
<line x1="124.1" y1="580.5" x2="250.3" y2="655.6"/>
<line x1="124.1" y1="580.5" x2="20.0" y2="656.6"/>
<line x1="124.1" y1="580.5" x2="190.3" y2="717.5"/>
<line x1="968.3" y1="583.4" x2="616.0" y2="604.1"/>
<line x1="968.3" y1="583.4" x2="823.6" y2="612.1"/>
<line x1="968.3" y1="583.4" x2="1101.6" y2="634.7"/>
<line x1="968.3" y1="583.4" x2="974.4" y2="679.0"/>
<line x1="968.3" y1="583.4" x2="779.6" y2="689.8"/>
<line x1="968.3" y1="583.4" x2="700.0" y2="716.7"/>
<line x1="968.3" y1="583.4" x2="803.4" y2="766.5"/>
<line x1="718.6" y1="595.7" x2="250.3" y2="655.6"/>
<line x1="718.6" y1="595.7" x2="779.6" y2="689.8"/>
<line x1="718.6" y1="595.7" x2="700.0" y2="716.7"/>
<line x1="718.6" y1="595.7" x2="862.3" y2="711.5"/>
<line x1="718.6" y1="595.7" x2="471.9" y2="717.0"/>
<line x1="718.6" y1="595.7" x2="631.5" y2="758.9"/>
<line x1="718.6" y1="595.7" x2="652.0" y2="836.5"/>
<line x1="718.6" y1="595.7" x2="881.9" y2="838.7"/>
<line x1="718.6" y1="595.7" x2="789.3" y2="850.0"/>
<line x1="718.6" y1="595.7" x2="679.1" y2="973.6"/>
<line x1="616.0" y1="604.1" x2="823.6" y2="612.1"/>
<line x1="616.0" y1="604.1" x2="250.3" y2="655.6"/>
<line x1="616.0" y1="604.1" x2="427.1" y2="649.5"/>
<line x1="616.0" y1="604.1" x2="779.6" y2="689.8"/>
<line x1="616.0" y1="604.1" x2="700.0" y2="716.7"/>
<line x1="616.0" y1="604.1" x2="190.3" y2="717.5"/>
<line x1="616.0" y1="604.1" x2="548.4" y2="741.8"/>
<line x1="616.0" y1="604.1" x2="803.4" y2="766.5"/>
<line x1="616.0" y1="604.1" x2="418.4" y2="777.1"/>
<line x1="616.0" y1="604.1" x2="320.2" y2="831.4"/>
<line x1="616.0" y1="604.1" x2="395.6" y2="881.9"/>
<line x1="616.0" y1="604.1" x2="625.2" y2="912.3"/>
<line x1="616.0" y1="604.1" x2="600.2" y2="988.4"/>
<line x1="823.6" y1="612.1" x2="974.4" y2="679.0"/>
<line x1="823.6" y1="612.1" x2="779.6" y2="689.8"/>
<line x1="823.6" y1="612.1" x2="700.0" y2="716.7"/>
<line x1="823.6" y1="612.1" x2="803.4" y2="766.5"/>
<line x1="823.6" y1="612.1" x2="418.4" y2="777.1"/>
<line x1="823.6" y1="612.1" x2="652.0" y2="836.5"/>
<line x1="823.6" y1="612.1" x2="789.3" y2="850.0"/>
<line x1="823.6" y1="612.1" x2="395.6" y2="881.9"/>
<line x1="823.6" y1="612.1" x2="625.2" y2="912.3"/>
<line x1="823.6" y1="612.1" x2="958.3" y2="970.5"/>
<line x1="324.9" y1="625.9" x2="250.3" y2="655.6"/>
<line x1="324.9" y1="625.9" x2="720.4" y2="794.4"/>
<line x1="324.9" y1="625.9" x2="484.4" y2="920.4"/>
<line x1="324.9" y1="625.9" x2="287.1" y2="965.8"/>
<line x1="1101.6" y1="634.7" x2="974.4" y2="679.0"/>
<line x1="1101.6" y1="634.7" x2="779.6" y2="689.8"/>
<line x1="1101.6" y1="634.7" x2="803.4" y2="766.5"/>
<line x1="1101.6" y1="634.7" x2="891.8" y2="918.4"/>
<line x1="250.3" y1="655.6" x2="20.0" y2="656.6"/>
<line x1="250.3" y1="655.6" x2="603.9" y2="683.3"/>
<line x1="250.3" y1="655.6" x2="779.6" y2="689.8"/>
<line x1="250.3" y1="655.6" x2="700.0" y2="716.7"/>
<line x1="250.3" y1="655.6" x2="374.1" y2="710.0"/>
<line x1="250.3" y1="655.6" x2="190.3" y2="717.5"/>
<line x1="250.3" y1="655.6" x2="471.9" y2="717.0"/>
<line x1="250.3" y1="655.6" x2="294.9" y2="722.5"/>
<line x1="250.3" y1="655.6" x2="47.3" y2="732.4"/>
<line x1="250.3" y1="655.6" x2="123.3" y2="763.6"/>
<line x1="250.3" y1="655.6" x2="418.4" y2="777.1"/>
<line x1="250.3" y1="655.6" x2="320.2" y2="831.4"/>
<line x1="250.3" y1="655.6" x2="465.6" y2="842.2"/>
<line x1="250.3" y1="655.6" x2="232.0" y2="847.7"/>
<line x1="250.3" y1="655.6" x2="111.2" y2="869.0"/>
<line x1="250.3" y1="655.6" x2="395.6" y2="881.9"/>
<line x1="250.3" y1="655.6" x2="183.8" y2="918.9"/>
<line x1="250.3" y1="655.6" x2="679.1" y2="973.6"/>
<line x1="250.3" y1="655.6" x2="287.1" y2="965.8"/>
<line x1="250.3" y1="655.6" x2="401.0" y2="971.0"/>
<line x1="427.1" y1="649.5" x2="527.3" y2="659.0"/>
<line x1="427.1" y1="649.5" x2="779.6" y2="689.8"/>
<line x1="427.1" y1="649.5" x2="700.0" y2="716.7"/>
<line x1="427.1" y1="649.5" x2="190.3" y2="717.5"/>
<line x1="427.1" y1="649.5" x2="471.9" y2="717.0"/>
<line x1="427.1" y1="649.5" x2="548.4" y2="741.8"/>
<line x1="427.1" y1="649.5" x2="803.4" y2="766.5"/>
<line x1="427.1" y1="649.5" x2="418.4" y2="777.1"/>
<line x1="427.1" y1="649.5" x2="465.6" y2="842.2"/>
<line x1="427.1" y1="649.5" x2="232.0" y2="847.7"/>
<line x1="427.1" y1="649.5" x2="625.2" y2="912.3"/>
<line x1="427.1" y1="649.5" x2="484.4" y2="920.4"/>
<line x1="427.1" y1="649.5" x2="401.0" y2="971.0"/>
<line x1="527.3" y1="659.0" x2="374.1" y2="710.0"/>
<line x1="527.3" y1="659.0" x2="190.3" y2="717.5"/>
<line x1="527.3" y1="659.0" x2="294.9" y2="722.5"/>
<line x1="527.3" y1="659.0" x2="418.4" y2="777.1"/>
<line x1="527.3" y1="659.0" x2="652.0" y2="836.5"/>
<line x1="527.3" y1="659.0" x2="988.8" y2="835.0"/>
<line x1="527.3" y1="659.0" x2="395.6" y2="881.9"/>
<line x1="527.3" y1="659.0" x2="600.2" y2="988.4"/>
<line x1="20.0" y1="656.6" x2="190.3" y2="717.5"/>
<line x1="974.4" y1="679.0" x2="779.6" y2="689.8"/>
<line x1="974.4" y1="679.0" x2="700.0" y2="716.7"/>
<line x1="974.4" y1="679.0" x2="803.4" y2="766.5"/>
<line x1="974.4" y1="679.0" x2="679.1" y2="973.6"/>
<line x1="603.9" y1="683.3" x2="779.6" y2="689.8"/>
<line x1="603.9" y1="683.3" x2="862.3" y2="711.5"/>
<line x1="603.9" y1="683.3" x2="631.5" y2="758.9"/>
<line x1="603.9" y1="683.3" x2="484.4" y2="920.4"/>
<line x1="779.6" y1="689.8" x2="700.0" y2="716.7"/>
<line x1="779.6" y1="689.8" x2="374.1" y2="710.0"/>
<line x1="779.6" y1="689.8" x2="1074.3" y2="710.4"/>
<line x1="779.6" y1="689.8" x2="471.9" y2="717.0"/>
<line x1="779.6" y1="689.8" x2="294.9" y2="722.5"/>
<line x1="779.6" y1="689.8" x2="1159.6" y2="728.6"/>
<line x1="779.6" y1="689.8" x2="320.2" y2="831.4"/>
<line x1="779.6" y1="689.8" x2="988.8" y2="835.0"/>
<line x1="779.6" y1="689.8" x2="881.9" y2="838.7"/>
<line x1="779.6" y1="689.8" x2="1170.6" y2="877.4"/>
<line x1="779.6" y1="689.8" x2="1092.3" y2="895.4"/>
<line x1="779.6" y1="689.8" x2="891.8" y2="918.4"/>
<line x1="779.6" y1="689.8" x2="1094.8" y2="979.9"/>
<line x1="779.6" y1="689.8" x2="600.2" y2="988.4"/>
<line x1="779.6" y1="689.8" x2="730.4" y2="1035.4"/>
<line x1="779.6" y1="689.8" x2="807.7" y2="1076.8"/>
<line x1="779.6" y1="689.8" x2="700.9" y2="1120.2"/>
<line x1="700.0" y1="716.7" x2="803.4" y2="766.5"/>
<line x1="700.0" y1="716.7" x2="418.4" y2="777.1"/>
<line x1="700.0" y1="716.7" x2="561.0" y2="821.0"/>
<line x1="700.0" y1="716.7" x2="652.0" y2="836.5"/>
<line x1="700.0" y1="716.7" x2="881.9" y2="838.7"/>
<line x1="700.0" y1="716.7" x2="789.3" y2="850.0"/>
<line x1="700.0" y1="716.7" x2="704.5" y2="897.4"/>
<line x1="700.0" y1="716.7" x2="484.4" y2="920.4"/>
<line x1="700.0" y1="716.7" x2="679.1" y2="973.6"/>
<line x1="700.0" y1="716.7" x2="492.4" y2="1000.3"/>
<line x1="700.0" y1="716.7" x2="839.3" y2="1002.7"/>
<line x1="700.0" y1="716.7" x2="730.4" y2="1035.4"/>
<line x1="700.0" y1="716.7" x2="651.4" y2="1050.5"/>
<line x1="700.0" y1="716.7" x2="807.7" y2="1076.8"/>
<line x1="700.0" y1="716.7" x2="891.9" y2="1127.5"/>
<line x1="374.1" y1="710.0" x2="418.4" y2="777.1"/>
<line x1="374.1" y1="710.0" x2="183.8" y2="918.9"/>
<line x1="190.3" y1="717.5" x2="294.9" y2="722.5"/>
<line x1="190.3" y1="717.5" x2="47.3" y2="732.4"/>
<line x1="190.3" y1="717.5" x2="418.4" y2="777.1"/>
<line x1="190.3" y1="717.5" x2="320.2" y2="831.4"/>
<line x1="190.3" y1="717.5" x2="232.0" y2="847.7"/>
<line x1="190.3" y1="717.5" x2="395.6" y2="881.9"/>
<line x1="862.3" y1="711.5" x2="803.4" y2="766.5"/>
<line x1="862.3" y1="711.5" x2="652.0" y2="836.5"/>
<line x1="862.3" y1="711.5" x2="789.3" y2="850.0"/>
<line x1="862.3" y1="711.5" x2="600.2" y2="988.4"/>
<line x1="1074.3" y1="710.4" x2="1159.6" y2="728.6"/>
<line x1="1074.3" y1="710.4" x2="988.8" y2="835.0"/>
<line x1="1074.3" y1="710.4" x2="1170.6" y2="877.4"/>
<line x1="1074.3" y1="710.4" x2="1092.3" y2="895.4"/>
<line x1="294.9" y1="722.5" x2="47.3" y2="732.4"/>
<line x1="294.9" y1="722.5" x2="123.3" y2="763.6"/>
<line x1="294.9" y1="722.5" x2="111.2" y2="869.0"/>
<line x1="1159.6" y1="728.6" x2="1258.5" y2="781.5"/>
<line x1="1159.6" y1="728.6" x2="988.8" y2="835.0"/>
<line x1="1159.6" y1="728.6" x2="1170.6" y2="877.4"/>
<line x1="1159.6" y1="728.6" x2="1092.3" y2="895.4"/>
<line x1="1159.6" y1="728.6" x2="1263.4" y2="920.0"/>
<line x1="1159.6" y1="728.6" x2="1094.8" y2="979.9"/>
<line x1="47.3" y1="732.4" x2="111.2" y2="869.0"/>
<line x1="548.4" y1="741.8" x2="803.4" y2="766.5"/>
<line x1="548.4" y1="741.8" x2="418.4" y2="777.1"/>
<line x1="548.4" y1="741.8" x2="465.6" y2="842.2"/>
<line x1="548.4" y1="741.8" x2="704.5" y2="897.4"/>
<line x1="548.4" y1="741.8" x2="625.2" y2="912.3"/>
<line x1="548.4" y1="741.8" x2="679.1" y2="973.6"/>
<line x1="548.4" y1="741.8" x2="492.4" y2="1000.3"/>
<line x1="631.5" y1="758.9" x2="803.4" y2="766.5"/>
<line x1="631.5" y1="758.9" x2="988.8" y2="835.0"/>
<line x1="631.5" y1="758.9" x2="704.5" y2="897.4"/>
<line x1="631.5" y1="758.9" x2="484.4" y2="920.4"/>
<line x1="631.5" y1="758.9" x2="600.2" y2="988.4"/>
<line x1="631.5" y1="758.9" x2="492.4" y2="1000.3"/>
<line x1="631.5" y1="758.9" x2="590.2" y2="1124.4"/>
<line x1="803.4" y1="766.5" x2="418.4" y2="777.1"/>
<line x1="803.4" y1="766.5" x2="881.9" y2="838.7"/>
<line x1="803.4" y1="766.5" x2="789.3" y2="850.0"/>
<line x1="803.4" y1="766.5" x2="395.6" y2="881.9"/>
<line x1="803.4" y1="766.5" x2="625.2" y2="912.3"/>
<line x1="803.4" y1="766.5" x2="679.1" y2="973.6"/>
<line x1="123.3" y1="763.6" x2="111.2" y2="869.0"/>
<line x1="418.4" y1="777.1" x2="652.0" y2="836.5"/>
<line x1="418.4" y1="777.1" x2="320.2" y2="831.4"/>
<line x1="418.4" y1="777.1" x2="465.6" y2="842.2"/>
<line x1="418.4" y1="777.1" x2="232.0" y2="847.7"/>
<line x1="418.4" y1="777.1" x2="789.3" y2="850.0"/>
<line x1="418.4" y1="777.1" x2="395.6" y2="881.9"/>
<line x1="418.4" y1="777.1" x2="704.5" y2="897.4"/>
<line x1="418.4" y1="777.1" x2="625.2" y2="912.3"/>
<line x1="418.4" y1="777.1" x2="484.4" y2="920.4"/>
<line x1="418.4" y1="777.1" x2="183.8" y2="918.9"/>
<line x1="418.4" y1="777.1" x2="287.1" y2="965.8"/>
<line x1="418.4" y1="777.1" x2="401.0" y2="971.0"/>
<line x1="418.4" y1="777.1" x2="492.4" y2="1000.3"/>
<line x1="1258.5" y1="781.5" x2="988.8" y2="835.0"/>
<line x1="1258.5" y1="781.5" x2="1170.6" y2="877.4"/>
<line x1="1258.5" y1="781.5" x2="1092.3" y2="895.4"/>
<line x1="1258.5" y1="781.5" x2="1263.4" y2="920.0"/>
<line x1="1258.5" y1="781.5" x2="1094.8" y2="979.9"/>
<line x1="720.4" y1="794.4" x2="561.0" y2="821.0"/>
<line x1="720.4" y1="794.4" x2="704.5" y2="897.4"/>
<line x1="720.4" y1="794.4" x2="625.2" y2="912.3"/>
<line x1="720.4" y1="794.4" x2="484.4" y2="920.4"/>
<line x1="720.4" y1="794.4" x2="552.8" y2="1053.4"/>
<line x1="720.4" y1="794.4" x2="482.7" y2="1092.1"/>
<line x1="561.0" y1="821.0" x2="704.5" y2="897.4"/>
<line x1="561.0" y1="821.0" x2="625.2" y2="912.3"/>
<line x1="561.0" y1="821.0" x2="484.4" y2="920.4"/>
<line x1="561.0" y1="821.0" x2="552.8" y2="1053.4"/>
<line x1="652.0" y1="836.5" x2="988.8" y2="835.0"/>
<line x1="652.0" y1="836.5" x2="881.9" y2="838.7"/>
<line x1="652.0" y1="836.5" x2="789.3" y2="850.0"/>
<line x1="652.0" y1="836.5" x2="395.6" y2="881.9"/>
<line x1="652.0" y1="836.5" x2="625.2" y2="912.3"/>
<line x1="652.0" y1="836.5" x2="484.4" y2="920.4"/>
<line x1="652.0" y1="836.5" x2="183.8" y2="918.9"/>
<line x1="652.0" y1="836.5" x2="811.9" y2="927.3"/>
<line x1="652.0" y1="836.5" x2="679.1" y2="973.6"/>
<line x1="652.0" y1="836.5" x2="958.3" y2="970.5"/>
<line x1="652.0" y1="836.5" x2="730.4" y2="1035.4"/>
<line x1="652.0" y1="836.5" x2="651.4" y2="1050.5"/>
<line x1="652.0" y1="836.5" x2="482.7" y2="1092.1"/>
<line x1="652.0" y1="836.5" x2="590.2" y2="1124.4"/>
<line x1="320.2" y1="831.4" x2="465.6" y2="842.2"/>
<line x1="320.2" y1="831.4" x2="395.6" y2="881.9"/>
<line x1="320.2" y1="831.4" x2="183.8" y2="918.9"/>
<line x1="320.2" y1="831.4" x2="287.1" y2="965.8"/>
<line x1="320.2" y1="831.4" x2="401.0" y2="971.0"/>
<line x1="988.8" y1="835.0" x2="1170.6" y2="877.4"/>
<line x1="988.8" y1="835.0" x2="1092.3" y2="895.4"/>
<line x1="988.8" y1="835.0" x2="1263.4" y2="920.0"/>
<line x1="988.8" y1="835.0" x2="958.3" y2="970.5"/>
<line x1="988.8" y1="835.0" x2="1094.8" y2="979.9"/>
<line x1="988.8" y1="835.0" x2="600.2" y2="988.4"/>
<line x1="988.8" y1="835.0" x2="1213.9" y2="1018.9"/>
<line x1="988.8" y1="835.0" x2="1045.6" y2="1072.9"/>
<line x1="988.8" y1="835.0" x2="1134.2" y2="1094.6"/>
<line x1="881.9" y1="838.7" x2="600.2" y2="988.4"/>
<line x1="881.9" y1="838.7" x2="839.3" y2="1002.7"/>
<line x1="881.9" y1="838.7" x2="941.0" y2="1058.7"/>
<line x1="465.6" y1="842.2" x2="704.5" y2="897.4"/>
<line x1="465.6" y1="842.2" x2="625.2" y2="912.3"/>
<line x1="465.6" y1="842.2" x2="401.0" y2="971.0"/>
<line x1="465.6" y1="842.2" x2="492.4" y2="1000.3"/>
<line x1="789.3" y1="850.0" x2="625.2" y2="912.3"/>
<line x1="789.3" y1="850.0" x2="679.1" y2="973.6"/>
<line x1="789.3" y1="850.0" x2="600.2" y2="988.4"/>
<line x1="789.3" y1="850.0" x2="807.7" y2="1076.8"/>
<line x1="1170.6" y1="877.4" x2="1092.3" y2="895.4"/>
<line x1="1170.6" y1="877.4" x2="1263.4" y2="920.0"/>
<line x1="1170.6" y1="877.4" x2="958.3" y2="970.5"/>
<line x1="1170.6" y1="877.4" x2="1094.8" y2="979.9"/>
<line x1="1170.6" y1="877.4" x2="1213.9" y2="1018.9"/>
<line x1="1170.6" y1="877.4" x2="1045.6" y2="1072.9"/>
<line x1="1170.6" y1="877.4" x2="1134.2" y2="1094.6"/>
<line x1="395.6" y1="881.9" x2="183.8" y2="918.9"/>
<line x1="395.6" y1="881.9" x2="287.1" y2="965.8"/>
<line x1="395.6" y1="881.9" x2="730.4" y2="1035.4"/>
<line x1="704.5" y1="897.4" x2="625.2" y2="912.3"/>
<line x1="704.5" y1="897.4" x2="484.4" y2="920.4"/>
<line x1="704.5" y1="897.4" x2="891.8" y2="918.4"/>
<line x1="704.5" y1="897.4" x2="811.9" y2="927.3"/>
<line x1="704.5" y1="897.4" x2="401.0" y2="971.0"/>
<line x1="704.5" y1="897.4" x2="600.2" y2="988.4"/>
<line x1="704.5" y1="897.4" x2="492.4" y2="1000.3"/>
<line x1="704.5" y1="897.4" x2="730.4" y2="1035.4"/>
<line x1="704.5" y1="897.4" x2="552.8" y2="1053.4"/>
<line x1="704.5" y1="897.4" x2="482.7" y2="1092.1"/>
<line x1="704.5" y1="897.4" x2="700.9" y2="1120.2"/>
<line x1="704.5" y1="897.4" x2="590.2" y2="1124.4"/>
<line x1="1092.3" y1="895.4" x2="1094.8" y2="979.9"/>
<line x1="1092.3" y1="895.4" x2="1213.9" y2="1018.9"/>
<line x1="1092.3" y1="895.4" x2="1045.6" y2="1072.9"/>
<line x1="1092.3" y1="895.4" x2="1134.2" y2="1094.6"/>
<line x1="625.2" y1="912.3" x2="484.4" y2="920.4"/>
<line x1="625.2" y1="912.3" x2="891.8" y2="918.4"/>
<line x1="625.2" y1="912.3" x2="401.0" y2="971.0"/>
<line x1="625.2" y1="912.3" x2="600.2" y2="988.4"/>
<line x1="625.2" y1="912.3" x2="492.4" y2="1000.3"/>
<line x1="625.2" y1="912.3" x2="651.4" y2="1050.5"/>
<line x1="625.2" y1="912.3" x2="552.8" y2="1053.4"/>
<line x1="625.2" y1="912.3" x2="807.7" y2="1076.8"/>
<line x1="625.2" y1="912.3" x2="482.7" y2="1092.1"/>
<line x1="625.2" y1="912.3" x2="700.9" y2="1120.2"/>
<line x1="625.2" y1="912.3" x2="590.2" y2="1124.4"/>
<line x1="625.2" y1="912.3" x2="622.3" y2="1198.4"/>
<line x1="484.4" y1="920.4" x2="679.1" y2="973.6"/>
<line x1="484.4" y1="920.4" x2="600.2" y2="988.4"/>
<line x1="484.4" y1="920.4" x2="651.4" y2="1050.5"/>
<line x1="484.4" y1="920.4" x2="552.8" y2="1053.4"/>
<line x1="484.4" y1="920.4" x2="482.7" y2="1092.1"/>
<line x1="484.4" y1="920.4" x2="590.2" y2="1124.4"/>
<line x1="891.8" y1="918.4" x2="679.1" y2="973.6"/>
<line x1="891.8" y1="918.4" x2="651.4" y2="1050.5"/>
<line x1="183.8" y1="918.9" x2="287.1" y2="965.8"/>
<line x1="1263.4" y1="920.0" x2="1094.8" y2="979.9"/>
<line x1="811.9" y1="927.3" x2="679.1" y2="973.6"/>
<line x1="679.1" y1="973.6" x2="401.0" y2="971.0"/>
<line x1="679.1" y1="973.6" x2="600.2" y2="988.4"/>
<line x1="679.1" y1="973.6" x2="492.4" y2="1000.3"/>
<line x1="679.1" y1="973.6" x2="839.3" y2="1002.7"/>
<line x1="679.1" y1="973.6" x2="482.7" y2="1092.1"/>
<line x1="679.1" y1="973.6" x2="700.9" y2="1120.2"/>
<line x1="679.1" y1="973.6" x2="590.2" y2="1124.4"/>
<line x1="679.1" y1="973.6" x2="622.3" y2="1198.4"/>
<line x1="679.1" y1="973.6" x2="514.3" y2="1235.6"/>
<line x1="679.1" y1="973.6" x2="700.9" y2="1270.0"/>
<line x1="287.1" y1="965.8" x2="600.2" y2="988.4"/>
<line x1="958.3" y1="970.5" x2="1094.8" y2="979.9"/>
<line x1="958.3" y1="970.5" x2="651.4" y2="1050.5"/>
<line x1="958.3" y1="970.5" x2="807.7" y2="1076.8"/>
<line x1="958.3" y1="970.5" x2="891.9" y2="1127.5"/>
<line x1="958.3" y1="970.5" x2="982.8" y2="1221.4"/>
<line x1="401.0" y1="971.0" x2="492.4" y2="1000.3"/>
<line x1="1094.8" y1="979.9" x2="807.7" y2="1076.8"/>
<line x1="1094.8" y1="979.9" x2="891.9" y2="1127.5"/>
<line x1="600.2" y1="988.4" x2="492.4" y2="1000.3"/>
<line x1="600.2" y1="988.4" x2="839.3" y2="1002.7"/>
<line x1="600.2" y1="988.4" x2="482.7" y2="1092.1"/>
<line x1="600.2" y1="988.4" x2="700.9" y2="1120.2"/>
<line x1="492.4" y1="1000.3" x2="700.9" y2="1120.2"/>
<line x1="1213.9" y1="1018.9" x2="1045.6" y2="1072.9"/>
<line x1="1213.9" y1="1018.9" x2="1134.2" y2="1094.6"/>
<line x1="730.4" y1="1035.4" x2="941.0" y2="1058.7"/>
<line x1="730.4" y1="1035.4" x2="807.7" y2="1076.8"/>
<line x1="651.4" y1="1050.5" x2="807.7" y2="1076.8"/>
<line x1="651.4" y1="1050.5" x2="622.3" y2="1198.4"/>
<line x1="941.0" y1="1058.7" x2="807.7" y2="1076.8"/>
<line x1="1045.6" y1="1072.9" x2="1134.2" y2="1094.6"/>
<line x1="807.7" y1="1076.8" x2="891.9" y2="1127.5"/>
<line x1="807.7" y1="1076.8" x2="982.8" y2="1221.4"/>
<line x1="482.7" y1="1092.1" x2="590.2" y2="1124.4"/>
<line x1="482.7" y1="1092.1" x2="622.3" y2="1198.4"/>
<line x1="891.9" y1="1127.5" x2="982.8" y2="1221.4"/>
<line x1="622.3" y1="1198.4" x2="514.3" y2="1235.6"/>
<line x1="622.3" y1="1198.4" x2="700.9" y2="1270.0"/>
<line x1="514.3" y1="1235.6" x2="700.9" y2="1270.0"/>
</g><g>
<circle cx="552.2" cy="20.0" r="6.0" fill="#7c3aed"/>
<circle cx="638.7" cy="106.6" r="6.0" fill="#7644e9"/>
<circle cx="446.9" cy="108.0" r="5.9" fill="#7644e9"/>
<circle cx="811.7" cy="169.1" r="6.9" fill="#724ce7"/>
<circle cx="921.7" cy="187.0" r="7.7" fill="#714ee6"/>
<circle cx="721.3" cy="194.6" r="7.3" fill="#704fe6"/>
<circle cx="1032.9" cy="207.5" r="6.1" fill="#7051e6"/>
<circle cx="806.7" cy="269.7" r="9.1" fill="#6c58e3"/>
<circle cx="886.8" cy="276.5" r="10.0" fill="#6b59e3"/>
<circle cx="531.2" cy="284.7" r="7.3" fill="#6b5ae3"/>
<circle cx="678.2" cy="293.7" r="10.3" fill="#6a5be2"/>
<circle cx="1116.2" cy="347.1" r="6.1" fill="#6762e0"/>
<circle cx="978.7" cy="352.2" r="8.8" fill="#6762e0"/>
<circle cx="273.9" cy="352.3" r="6.0" fill="#6662e0"/>
<circle cx="859.9" cy="369.3" r="14.0" fill="#6565e0"/>
<circle cx="714.7" cy="372.5" r="11.2" fill="#6565e0"/>
<circle cx="351.6" cy="373.0" r="10.7" fill="#6565e0"/>
<circle cx="505.4" cy="400.3" r="12.6" fill="#6368df"/>
<circle cx="200.5" cy="397.4" r="7.3" fill="#6468df"/>
<circle cx="421.2" cy="413.4" r="6.2" fill="#636ade"/>
<circle cx="124.5" cy="423.0" r="6.1" fill="#626bde"/>
<circle cx="966.2" cy="431.6" r="8.4" fill="#616cdd"/>
<circle cx="284.8" cy="433.8" r="7.8" fill="#616cdd"/>
<circle cx="674.0" cy="441.9" r="9.6" fill="#616ddd"/>
<circle cx="754.4" cy="442.4" r="9.1" fill="#616edd"/>
<circle cx="216.6" cy="476.7" r="7.3" fill="#5f72dc"/>
<circle cx="1036.5" cy="479.4" r="7.3" fill="#5e72dc"/>
<circle cx="62.3" cy="483.6" r="6.4" fill="#5e73db"/>
<circle cx="817.6" cy="492.0" r="11.4" fill="#5e74db"/>
<circle cx="413.1" cy="493.4" r="9.2" fill="#5e74db"/>
<circle cx="332.9" cy="497.9" r="7.8" fill="#5d74db"/>
<circle cx="140.4" cy="501.9" r="7.0" fill="#5d75db"/>
<circle cx="896.7" cy="507.4" r="7.0" fill="#5d76db"/>
<circle cx="587.0" cy="508.5" r="6.1" fill="#5d76db"/>
<circle cx="666.4" cy="521.9" r="6.1" fill="#5c77da"/>
<circle cx="200.3" cy="555.5" r="10.2" fill="#5a7bd9"/>
<circle cx="280.5" cy="558.9" r="12.9" fill="#597cd9"/>
<circle cx="462.4" cy="556.7" r="10.1" fill="#5a7cd9"/>
<circle cx="45.6" cy="562.3" r="6.2" fill="#597cd9"/>
<circle cx="382.8" cy="567.6" r="8.5" fill="#597dd8"/>
<circle cx="539.4" cy="579.5" r="12.4" fill="#587ed8"/>
<circle cx="124.1" cy="580.5" r="10.1" fill="#587fd8"/>
<circle cx="968.3" cy="583.4" r="8.4" fill="#587fd8"/>
<circle cx="718.6" cy="595.7" r="9.7" fill="#5780d7"/>
<circle cx="616.0" cy="604.1" r="10.9" fill="#5781d7"/>
<circle cx="823.6" cy="612.1" r="11.1" fill="#5682d7"/>
<circle cx="324.9" cy="625.9" r="10.9" fill="#5584d6"/>
<circle cx="1101.6" cy="634.7" r="7.3" fill="#5585d6"/>
<circle cx="250.3" cy="655.6" r="21.2" fill="#5388d5"/>
<circle cx="427.1" cy="649.5" r="12.4" fill="#5487d5"/>
<circle cx="527.3" cy="659.0" r="10.5" fill="#5388d5"/>
<circle cx="20.0" cy="656.6" r="6.5" fill="#5388d5"/>
<circle cx="974.4" cy="679.0" r="9.4" fill="#528bd4"/>
<circle cx="603.9" cy="683.3" r="7.8" fill="#528bd4"/>
<circle cx="779.6" cy="689.8" r="14.8" fill="#518cd4"/>
<circle cx="700.0" cy="716.7" r="15.7" fill="#4f8fd3"/>
<circle cx="374.1" cy="710.0" r="7.8" fill="#508fd3"/>
<circle cx="190.3" cy="717.5" r="13.1" fill="#4f8fd3"/>
<circle cx="862.3" cy="711.5" r="7.3" fill="#508fd3"/>
<circle cx="1074.3" cy="710.4" r="6.4" fill="#508fd3"/>
<circle cx="471.9" cy="717.0" r="5.9" fill="#4f8fd3"/>
<circle cx="294.9" cy="722.5" r="10.6" fill="#4f90d3"/>
<circle cx="1159.6" cy="728.6" r="7.2" fill="#4f91d2"/>
<circle cx="47.3" cy="732.4" r="7.3" fill="#4e91d2"/>
<circle cx="548.4" cy="741.8" r="9.8" fill="#4e92d2"/>
<circle cx="631.5" cy="758.9" r="10.1" fill="#4d95d1"/>
<circle cx="803.4" cy="766.5" r="11.2" fill="#4c95d1"/>
<circle cx="123.3" cy="763.6" r="6.2" fill="#4d95d1"/>
<circle cx="418.4" cy="777.1" r="13.4" fill="#4c97d1"/>
<circle cx="1258.5" cy="781.5" r="7.3" fill="#4b97d0"/>
<circle cx="720.4" cy="794.4" r="9.0" fill="#4b99d0"/>
<circle cx="561.0" cy="821.0" r="7.8" fill="#499ccf"/>
<circle cx="652.0" cy="836.5" r="13.9" fill="#489ece"/>
<circle cx="320.2" cy="831.4" r="8.2" fill="#489dcf"/>
<circle cx="988.8" cy="835.0" r="10.9" fill="#489ecf"/>
<circle cx="881.9" cy="838.7" r="8.6" fill="#489ece"/>
<circle cx="465.6" cy="842.2" r="9.5" fill="#489fce"/>
<circle cx="232.0" cy="847.7" r="6.1" fill="#479fce"/>
<circle cx="789.3" cy="850.0" r="8.5" fill="#47a0ce"/>
<circle cx="111.2" cy="869.0" r="6.1" fill="#46a2cd"/>
<circle cx="1170.6" cy="877.4" r="11.2" fill="#45a3cd"/>
<circle cx="395.6" cy="881.9" r="10.7" fill="#45a4cd"/>
<circle cx="704.5" cy="897.4" r="13.9" fill="#44a6cc"/>
<circle cx="1092.3" cy="895.4" r="9.4" fill="#44a5cc"/>
<circle cx="625.2" cy="912.3" r="15.2" fill="#43a7cc"/>
<circle cx="484.4" cy="920.4" r="12.4" fill="#43a8cb"/>
<circle cx="891.8" cy="918.4" r="7.0" fill="#43a8cb"/>
<circle cx="183.8" cy="918.9" r="6.8" fill="#43a8cb"/>
<circle cx="1263.4" cy="920.0" r="6.5" fill="#43a8cb"/>
<circle cx="811.9" cy="927.3" r="6.0" fill="#42a9cb"/>
<circle cx="679.1" cy="973.6" r="16.2" fill="#3fafc9"/>
<circle cx="287.1" cy="965.8" r="6.8" fill="#40aeca"/>
<circle cx="958.3" cy="970.5" r="8.2" fill="#3fafca"/>
<circle cx="401.0" cy="971.0" r="7.7" fill="#3fafca"/>
<circle cx="1094.8" cy="979.9" r="8.8" fill="#3fb0c9"/>
<circle cx="600.2" cy="988.4" r="12.1" fill="#3eb1c9"/>
<circle cx="492.4" cy="1000.3" r="10.1" fill="#3eb2c8"/>
<circle cx="839.3" cy="1002.7" r="6.2" fill="#3db3c8"/>
<circle cx="1213.9" cy="1018.9" r="6.9" fill="#3cb5c8"/>
<circle cx="730.4" cy="1035.4" r="8.3" fill="#3bb7c7"/>
<circle cx="651.4" cy="1050.5" r="10.1" fill="#3ab8c7"/>
<circle cx="552.8" cy="1053.4" r="6.1" fill="#3ab9c6"/>
<circle cx="941.0" cy="1058.7" r="6.1" fill="#3ab9c6"/>
<circle cx="1045.6" cy="1072.9" r="7.4" fill="#39bbc6"/>
<circle cx="807.7" cy="1076.8" r="9.7" fill="#39bcc6"/>
<circle cx="482.7" cy="1092.1" r="7.8" fill="#38bec5"/>
<circle cx="1134.2" cy="1094.6" r="7.3" fill="#38bec5"/>
<circle cx="700.9" cy="1120.2" r="7.7" fill="#36c1c4"/>
<circle cx="590.2" cy="1124.4" r="7.5" fill="#36c2c4"/>
<circle cx="891.9" cy="1127.5" r="7.0" fill="#36c2c4"/>
<circle cx="622.3" cy="1198.4" r="6.4" fill="#31cbc1"/>
<circle cx="982.8" cy="1221.4" r="6.1" fill="#30cec0"/>
<circle cx="514.3" cy="1235.6" r="6.2" fill="#2fcfc0"/>
<circle cx="700.9" cy="1270.0" r="5.9" fill="#2dd4bf"/>
</g></svg>